<svg id="Layer_1" data-name="Layer 1" xmlns="http://www.w3.org/2000/svg" viewBox="0 0 800 600"><rect x="417.31" y="86.51" width="123.19" height="76.99" style="fill:none;stroke:#181ea9;stroke-miterlimit:10;stroke-width:0.6000000238418579px"/><circle cx="479.03" cy="124.86" r="73.03" style="fill:none;stroke:#181ea9;stroke-miterlimit:10;stroke-width:0.6000000238418579px"/><rect x="103.21" y="86.51" width="123.19" height="76.99" transform="translate(39.8 289.81) rotate(-90)" style="fill:none;stroke:#181ea9;stroke-miterlimit:10;stroke-width:0.6000000238418579px"/><circle cx="164.69" cy="124.86" r="73.03" style="fill:none;stroke:#181ea9;stroke-miterlimit:10;stroke-width:0.6000000238418579px"/><line x1="203.13" y1="81.1" x2="126.12" y2="81.1" style="fill:none;stroke:#181ea9;stroke-miterlimit:10;stroke-width:0.6000000238418579px"/><line x1="203.13" y1="98.04" x2="126.12" y2="98.04" style="fill:none;stroke:#181ea9;stroke-miterlimit:10;stroke-width:0.6000000238418579px"/><line x1="203.13" y1="115.75" x2="126.12" y2="115.75" style="fill:none;stroke:#181ea9;stroke-miterlimit:10;stroke-width:0.6000000238418579px"/><line x1="479.03" y1="51.93" x2="479.03" y2="15.64" style="fill:none;stroke:#181ea9;stroke-miterlimit:10;stroke-width:0.6000000238418579px"/><line x1="635.75" y1="85.03" x2="635.75" y2="15.64" style="fill:none;stroke:#181ea9;stroke-miterlimit:10;stroke-width:0.6000000238418579px"/><line x1="164.69" y1="52.17" x2="164.69" y2="15.64" style="fill:none;stroke:#181ea9;stroke-miterlimit:10;stroke-width:0.6000000238418579px"/><line x1="321.7" y1="85.03" x2="321.7" y2="15.64" style="fill:none;stroke:#181ea9;stroke-miterlimit:10;stroke-width:0.6000000238418579px"/><circle cx="479.19" cy="8.5" r="7.3" style="fill:none;stroke:#181ea9;stroke-miterlimit:10;stroke-width:0.6000000238418579px"/><circle cx="635.91" cy="8.5" r="7.3" style="fill:none;stroke:#181ea9;stroke-miterlimit:10;stroke-width:0.6000000238418579px"/><circle cx="164.69" cy="8.5" r="7.3" style="fill:none;stroke:#181ea9;stroke-miterlimit:10;stroke-width:0.6000000238418579px"/><circle cx="321.54" cy="8.5" r="7.3" style="fill:none;stroke:#181ea9;stroke-miterlimit:10;stroke-width:0.6000000238418579px"/><circle cx="479.19" cy="299.94" r="7.3" style="fill:none;stroke:#181ea9;stroke-miterlimit:10;stroke-width:0.6000000238418579px"/><circle cx="635.91" cy="299.94" r="7.3" style="fill:none;stroke:#181ea9;stroke-miterlimit:10;stroke-width:0.6000000238418579px"/><circle cx="792.33" cy="299.94" r="7.3" style="fill:none;stroke:#181ea9;stroke-miterlimit:10;stroke-width:0.6000000238418579px"/><circle cx="164.69" cy="299.94" r="7.3" style="fill:none;stroke:#181ea9;stroke-miterlimit:10;stroke-width:0.6000000238418579px"/><circle cx="321.54" cy="299.94" r="7.3" style="fill:none;stroke:#181ea9;stroke-miterlimit:10;stroke-width:0.6000000238418579px"/><circle cx="7.67" cy="299.94" r="7.3" style="fill:none;stroke:#181ea9;stroke-miterlimit:10;stroke-width:0.6000000238418579px"/><rect x="287.99" y="103.61" width="67.57" height="42.44" transform="translate(196.94 446.61) rotate(-90)" style="fill:none;stroke:#181ea9;stroke-miterlimit:10;stroke-width:0.6000000238418579px"/><circle cx="321.7" cy="124.86" r="40.17" style="fill:none;stroke:#181ea9;stroke-miterlimit:10;stroke-width:0.6000000238418579px"/><line x1="342.86" y1="101.58" x2="300.26" y2="101.58" style="fill:none;stroke:#181ea9;stroke-miterlimit:10;stroke-width:0.6000000238418579px"/><line x1="342.86" y1="110.62" x2="300.26" y2="110.62" style="fill:none;stroke:#181ea9;stroke-miterlimit:10;stroke-width:0.6000000238418579px"/><rect x="287.86" y="453.52" width="67.57" height="42.44" style="fill:none;stroke:#181ea9;stroke-miterlimit:10;stroke-width:0.6000000238418579px"/><circle cx="321.72" cy="474.77" r="40.17" style="fill:none;stroke:#181ea9;stroke-miterlimit:10;stroke-width:0.6000000238418579px"/><rect x="102.99" y="436.42" width="123.19" height="76.99" transform="translate(-310.33 639.5) rotate(-90)" style="fill:none;stroke:#181ea9;stroke-miterlimit:10;stroke-width:0.6000000238418579px"/><circle cx="164.7" cy="474.77" r="73.03" style="fill:none;stroke:#181ea9;stroke-miterlimit:10;stroke-width:0.6000000238418579px"/><line x1="126.26" y1="431.01" x2="203.27" y2="431.01" style="fill:none;stroke:#181ea9;stroke-miterlimit:10;stroke-width:0.6000000238418579px"/><line x1="126.26" y1="447.95" x2="203.27" y2="447.95" style="fill:none;stroke:#181ea9;stroke-miterlimit:10;stroke-width:0.6000000238418579px"/><line x1="126.26" y1="465.66" x2="203.27" y2="465.66" style="fill:none;stroke:#181ea9;stroke-miterlimit:10;stroke-width:0.6000000238418579px"/><rect x="417.24" y="436.42" width="123.19" height="76.99" transform="translate(3.92 953.75) rotate(-90)" style="fill:none;stroke:#181ea9;stroke-miterlimit:10;stroke-width:0.6000000238418579px"/><circle cx="478.72" cy="474.77" r="73.03" style="fill:none;stroke:#181ea9;stroke-miterlimit:10;stroke-width:0.6000000238418579px"/><line x1="517.16" y1="431.01" x2="440.15" y2="431.01" style="fill:none;stroke:#181ea9;stroke-miterlimit:10;stroke-width:0.6000000238418579px"/><line x1="517.16" y1="447.95" x2="440.15" y2="447.95" style="fill:none;stroke:#181ea9;stroke-miterlimit:10;stroke-width:0.6000000238418579px"/><line x1="517.16" y1="465.66" x2="440.15" y2="465.66" style="fill:none;stroke:#181ea9;stroke-miterlimit:10;stroke-width:0.6000000238418579px"/><rect x="602.02" y="453.52" width="67.57" height="42.44" transform="translate(161.06 1110.55) rotate(-90)" style="fill:none;stroke:#181ea9;stroke-miterlimit:10;stroke-width:0.6000000238418579px"/><circle cx="635.73" cy="474.77" r="40.17" style="fill:none;stroke:#181ea9;stroke-miterlimit:10;stroke-width:0.6000000238418579px"/><line x1="656.9" y1="451.49" x2="614.3" y2="451.49" style="fill:none;stroke:#181ea9;stroke-miterlimit:10;stroke-width:0.6000000238418579px"/><line x1="656.9" y1="460.53" x2="614.3" y2="460.53" style="fill:none;stroke:#181ea9;stroke-miterlimit:10;stroke-width:0.6000000238418579px"/><line x1="14.76" y1="299.42" x2="157.76" y2="299.42" style="fill:none;stroke:#181ea9;stroke-miterlimit:10;stroke-width:0.6000000238418579px"/><line x1="171.78" y1="299.42" x2="314.19" y2="299.42" style="fill:none;stroke:#181ea9;stroke-miterlimit:10;stroke-width:0.6000000238418579px"/><line x1="328.79" y1="299.42" x2="471.93" y2="299.42" style="fill:none;stroke:#181ea9;stroke-miterlimit:10;stroke-width:0.6000000238418579px"/><line x1="486.54" y1="299.42" x2="628.95" y2="299.42" style="fill:none;stroke:#181ea9;stroke-miterlimit:10;stroke-width:0.6000000238418579px"/><line x1="643.38" y1="299.37" x2="784.8" y2="299.42" style="fill:none;stroke:#181ea9;stroke-miterlimit:10;stroke-width:0.6000000238418579px"/><path d="M469.28,120.72v-.41h3.64v.41h-1.6v4.35h-.44v-4.35Z" style="fill:#5a6eaa"/><path d="M476.2,120.31l1.82,4.76h-.48l-.45-1.19h-2.27l-.45,1.19h-.47l1.8-4.76Zm.73,3.16-1-2.62-1,2.62Z" style="fill:#5a6eaa"/><path d="M483.07,121.5h-.46a1.27,1.27,0,0,0-1.36-.86c-.48,0-1.16.19-1.16.82s.39.72.92.84l.57.12c.69.16,1.6.44,1.6,1.35s-.84,1.39-1.76,1.39a1.77,1.77,0,0,1-2-1.52h.46a1.35,1.35,0,0,0,1.48,1.1c.52,0,1.32-.19,1.32-.9s-.57-.86-1.24-1l-.6-.13c-.62-.15-1.24-.45-1.24-1.23s.88-1.26,1.65-1.26A1.65,1.65,0,0,1,483.07,121.5Z" style="fill:#5a6eaa"/><path d="M488.06,120.31h.56l-2,2,2.08,2.72h-.54l-1.85-2.4-.65.66v1.74h-.44v-4.76h.44v2.44Z" style="fill:#5a6eaa"/><path d="M311.18,130.74h-.75v1.64h-.34v-3.71h1.09c.88,0,1.51.15,1.51,1a.92.92,0,0,1-.84,1l.9,1.69h-.39l-.87-1.65Zm-.75-.31h.79c.61,0,1.11-.08,1.11-.73s-.5-.72-1.11-.72h-.79Z" style="fill:#5a6eaa"/><path d="M316.77,128.67V129h-2v1.31h1.92v.32h-1.92v1.44h2v.32h-2.38v-3.71Z" style="fill:#5a6eaa"/><path d="M320.88,129.6h-.36a1,1,0,0,0-1.06-.67c-.38,0-.9.15-.9.63s.3.57.71.66l.44.1c.54.12,1.25.33,1.25,1s-.65,1.08-1.37,1.08a1.36,1.36,0,0,1-1.52-1.18h.36a1,1,0,0,0,1.15.86c.4,0,1-.15,1-.7s-.44-.67-1-.78l-.46-.1c-.49-.12-1-.35-1-1s.7-1,1.29-1A1.3,1.3,0,0,1,320.88,129.6Z" style="fill:#5a6eaa"/><path d="M322.83,130.94c0,.8.29,1.18,1.08,1.18s1.09-.44,1.09-1.24v-2.21h.34v2.17c0,1.08-.38,1.6-1.43,1.6s-1.43-.41-1.43-1.56v-2.21h.35Z" style="fill:#5a6eaa"/><path d="M329.49,132.06v.32h-2.31v-3.71h.34v3.39Z" style="fill:#5a6eaa"/><path d="M329.9,129v-.32h2.83V129h-1.24v3.39h-.35V129Z" style="fill:#5a6eaa"/><path d="M151.15,130.27h-1v2.11h-.44v-4.77h1.4c1.14,0,1.95.2,1.95,1.31a1.18,1.18,0,0,1-1.09,1.29l1.16,2.17h-.49l-1.13-2.12Zm-1-.4h1c.78,0,1.43-.1,1.43-.94s-.65-.92-1.43-.92h-1Z" style="fill:#5a6eaa"/><path d="M158.34,127.61V128h-2.61v1.68h2.46v.42h-2.46V132h2.61v.41h-3.05v-4.77Z" style="fill:#5a6eaa"/><path d="M163.62,128.8h-.46a1.26,1.26,0,0,0-1.36-.85c-.48,0-1.16.19-1.16.81s.39.72.92.84l.57.13c.69.16,1.6.43,1.6,1.34s-.83,1.39-1.76,1.39a1.75,1.75,0,0,1-1.95-1.52h.46A1.34,1.34,0,0,0,162,132c.52,0,1.32-.19,1.32-.9s-.56-.85-1.23-1l-.6-.13c-.63-.14-1.25-.45-1.25-1.23s.89-1.25,1.66-1.25A1.64,1.64,0,0,1,163.62,128.8Z" style="fill:#5a6eaa"/><path d="M166.13,130.53c0,1,.38,1.51,1.39,1.51s1.4-.56,1.4-1.59v-2.84h.44v2.79c0,1.39-.49,2.06-1.84,2.06s-1.83-.53-1.83-2v-2.84h.44Z" style="fill:#5a6eaa"/><path d="M174.7,132v.41h-3v-4.77h.44V132Z" style="fill:#5a6eaa"/><path d="M175.22,128v-.41h3.65V128h-1.6v4.36h-.44V128Z" style="fill:#5a6eaa"/><path d="M314.17,474.51v-.31H317v.31h-1.25v3.39h-.34v-3.39Z" style="fill:#5a6eaa"/><path d="M319.56,474.2l1.41,3.7h-.37l-.36-.93h-1.76l-.35.93h-.37l1.41-3.7Zm.56,2.46-.77-2-.75,2Z" style="fill:#5a6eaa"/><path d="M324.9,475.12h-.36a1,1,0,0,0-1.06-.66c-.37,0-.9.15-.9.63s.3.56.71.66l.44.09c.54.13,1.25.34,1.25,1.05s-.65,1.08-1.37,1.08a1.38,1.38,0,0,1-1.52-1.18h.36a1,1,0,0,0,1.15.85c.4,0,1-.14,1-.7s-.44-.66-1-.77l-.46-.11c-.49-.11-1-.34-1-.95s.69-1,1.28-1A1.29,1.29,0,0,1,324.9,475.12Z" style="fill:#5a6eaa"/><path d="M328.78,474.2h.44l-1.57,1.59,1.62,2.11h-.42L327.41,476l-.51.52v1.35h-.34v-3.7h.34v1.9Z" style="fill:#5a6eaa"/><path d="M625.21,479.92h-.75v1.64h-.34v-3.71h1.09c.88,0,1.51.15,1.51,1a.91.91,0,0,1-.84,1l.9,1.69h-.38l-.88-1.65Zm-.75-.31h.8c.6,0,1.11-.08,1.11-.73s-.51-.72-1.11-.72h-.8Z" style="fill:#5a6eaa"/><path d="M630.8,477.85v.32h-2v1.3h1.91v.33h-1.91v1.44h2v.32h-2.38v-3.71Z" style="fill:#5a6eaa"/><path d="M634.91,478.77h-.36a1,1,0,0,0-1.06-.66c-.37,0-.9.15-.9.63s.3.57.72.66l.44.09c.53.13,1.25.34,1.25,1.05s-.65,1.08-1.38,1.08a1.38,1.38,0,0,1-1.52-1.18h.36a1.05,1.05,0,0,0,1.15.86c.4,0,1-.15,1-.71s-.44-.66-1-.77l-.47-.1c-.49-.12-1-.35-1-1s.69-1,1.29-1A1.3,1.3,0,0,1,634.91,478.77Z" style="fill:#5a6eaa"/><path d="M636.86,480.12c0,.8.29,1.18,1.08,1.18s1.09-.44,1.09-1.24v-2.21h.34V480c0,1.08-.38,1.6-1.43,1.6s-1.42-.41-1.42-1.56v-2.21h.34Z" style="fill:#5a6eaa"/><path d="M643.52,481.24v.32h-2.3v-3.71h.34v3.39Z" style="fill:#5a6eaa"/><path d="M643.93,478.17v-.32h2.84v.32h-1.25v3.39h-.34v-3.39Z" style="fill:#5a6eaa"/><path d="M151.78,479.45h-1v2.11h-.44v-4.77h1.4c1.14,0,1.95.2,1.95,1.31a1.18,1.18,0,0,1-1.09,1.29l1.16,2.17h-.49l-1.13-2.12Zm-1-.4h1c.78,0,1.43-.1,1.43-.94s-.65-.92-1.43-.92h-1Z" style="fill:#5a6eaa"/><path d="M159,476.79v.41h-2.61v1.68h2.46v.41h-2.46v1.86H159v.41h-3.05v-4.77Z" style="fill:#5a6eaa"/><path d="M164.25,478h-.46a1.26,1.26,0,0,0-1.36-.85c-.48,0-1.16.19-1.16.81s.39.72.92.84l.57.13c.69.15,1.6.43,1.6,1.34s-.83,1.39-1.76,1.39a1.75,1.75,0,0,1-1.95-1.52h.46a1.34,1.34,0,0,0,1.47,1.1c.52,0,1.32-.19,1.32-.9s-.56-.85-1.23-1l-.6-.13c-.62-.14-1.25-.45-1.25-1.23s.89-1.26,1.66-1.26A1.65,1.65,0,0,1,164.25,478Z" style="fill:#5a6eaa"/><path d="M166.76,479.71c0,1,.38,1.51,1.39,1.51s1.4-.56,1.4-1.59v-2.84H170v2.79c0,1.39-.49,2.06-1.84,2.06s-1.83-.53-1.83-2v-2.84h.44Z" style="fill:#5a6eaa"/><path d="M175.33,481.15v.41h-3v-4.77h.44v4.36Z" style="fill:#5a6eaa"/><path d="M175.85,477.2v-.41h3.65v.41h-1.6v4.36h-.44V477.2Z" style="fill:#5a6eaa"/><path d="M465.19,479.45h-1v2.11h-.44v-4.77h1.4c1.13,0,1.94.2,1.94,1.31a1.18,1.18,0,0,1-1.08,1.29l1.15,2.17h-.49l-1.12-2.12Zm-1-.4h1c.79,0,1.43-.1,1.43-.94s-.64-.92-1.43-.92h-1Z" style="fill:#5a6eaa"/><path d="M472.38,476.79v.41h-2.62v1.68h2.46v.41h-2.46v1.86h2.62v.41h-3.06v-4.77Z" style="fill:#5a6eaa"/><path d="M477.65,478h-.46a1.25,1.25,0,0,0-1.36-.85c-.48,0-1.15.19-1.15.81s.38.72.92.84l.56.13c.69.15,1.61.43,1.61,1.34s-.84,1.39-1.77,1.39a1.76,1.76,0,0,1-1.95-1.52h.46a1.35,1.35,0,0,0,1.48,1.1c.51,0,1.32-.19,1.32-.9s-.57-.85-1.24-1l-.6-.13c-.62-.14-1.25-.45-1.25-1.23s.89-1.26,1.66-1.26A1.65,1.65,0,0,1,477.65,478Z" style="fill:#5a6eaa"/><path d="M480.16,479.71c0,1,.38,1.51,1.39,1.51s1.4-.56,1.4-1.59v-2.84h.44v2.79c0,1.39-.48,2.06-1.84,2.06s-1.83-.53-1.83-2v-2.84h.44Z" style="fill:#5a6eaa"/><path d="M488.73,481.15v.41h-3v-4.77h.44v4.36Z" style="fill:#5a6eaa"/><path d="M489.25,477.2v-.41h3.65v.41h-1.6v4.36h-.44V477.2Z" style="fill:#5a6eaa"/><rect x="601.89" y="103.61" width="67.57" height="42.44" style="fill:none;stroke:#181ea9;stroke-miterlimit:10;stroke-width:0.6000000238418579px"/><circle cx="635.75" cy="124.86" r="40.17" style="fill:none;stroke:#181ea9;stroke-miterlimit:10;stroke-width:0.6000000238418579px"/><path d="M628.2,124.6v-.31H631v.31h-1.25V128h-.34v-3.4Z" style="fill:#5a6eaa"/><path d="M633.59,124.29,635,128h-.37l-.35-.93h-1.77l-.35.93h-.36l1.4-3.71Zm.56,2.46-.76-2-.76,2Z" style="fill:#5a6eaa"/><path d="M638.93,125.21h-.36a1,1,0,0,0-1.06-.66c-.37,0-.9.15-.9.63s.3.57.72.66l.44.09c.54.13,1.25.34,1.25,1s-.65,1.08-1.38,1.08a1.36,1.36,0,0,1-1.51-1.18h.35a1,1,0,0,0,1.15.85c.4,0,1-.14,1-.7s-.44-.66-1-.77l-.47-.11c-.49-.11-1-.34-1-1s.69-1,1.29-1A1.28,1.28,0,0,1,638.93,125.21Z" style="fill:#5a6eaa"/><path d="M642.81,124.29h.44l-1.57,1.59,1.63,2.12h-.42l-1.45-1.88-.5.52V128h-.35v-3.71h.35v1.9Z" style="fill:#5a6eaa"/><line x1="479.03" y1="292.24" x2="479.03" y2="198.21" style="fill:none;stroke:#181ea9;stroke-miterlimit:10;stroke-width:0.6000000238418579px"/><line x1="635.75" y1="292.85" x2="635.75" y2="165.35" style="fill:none;stroke:#181ea9;stroke-miterlimit:10;stroke-width:0.6000000238418579px"/><line x1="164.69" y1="292.24" x2="164.69" y2="198.21" style="fill:none;stroke:#181ea9;stroke-miterlimit:10;stroke-width:0.6000000238418579px"/><line x1="321.7" y1="292.85" x2="321.7" y2="165.35" style="fill:none;stroke:#181ea9;stroke-miterlimit:10;stroke-width:0.6000000238418579px"/><line x1="479.03" y1="307.68" x2="479.03" y2="401.71" style="fill:none;stroke:#181ea9;stroke-miterlimit:10;stroke-width:0.6000000238418579px"/><line x1="635.75" y1="307.07" x2="635.75" y2="434.58" style="fill:none;stroke:#181ea9;stroke-miterlimit:10;stroke-width:0.6000000238418579px"/><line x1="164.69" y1="307.68" x2="164.69" y2="401.71" style="fill:none;stroke:#181ea9;stroke-miterlimit:10;stroke-width:0.6000000238418579px"/><line x1="321.7" y1="307.07" x2="321.7" y2="434.58" style="fill:none;stroke:#181ea9;stroke-miterlimit:10;stroke-width:0.6000000238418579px"/><polygon points="171.99 273.24 164.69 285.41 157.38 273.24 171.99 273.24" style="fill:none;stroke:#181ea9;stroke-miterlimit:10;stroke-width:0.6000000238418579px"/><polygon points="325.35 279.25 321.7 285.34 318.05 279.25 325.35 279.25" style="fill:none;stroke:#181ea9;stroke-miterlimit:10;stroke-width:0.6000000238418579px"/><polygon points="486.33 273.24 479.03 285.41 471.72 273.24 486.33 273.24" style="fill:none;stroke:#181ea9;stroke-miterlimit:10;stroke-width:0.6000000238418579px"/><polygon points="639.39 279.25 635.74 285.34 632.09 279.25 639.39 279.25" style="fill:none;stroke:#181ea9;stroke-miterlimit:10;stroke-width:0.6000000238418579px"/><polygon points="171.99 35.49 164.69 23.31 157.38 35.49 171.99 35.49" style="fill:none;stroke:#181ea9;stroke-miterlimit:10;stroke-width:0.6000000238418579px"/><polygon points="325.35 29.47 321.7 23.39 318.05 29.47 325.35 29.47" style="fill:none;stroke:#181ea9;stroke-miterlimit:10;stroke-width:0.6000000238418579px"/><polygon points="486.33 35.49 479.03 23.31 471.72 35.49 486.33 35.49" style="fill:none;stroke:#181ea9;stroke-miterlimit:10;stroke-width:0.6000000238418579px"/><polygon points="639.39 29.47 635.74 23.39 632.09 29.47 639.39 29.47" style="fill:none;stroke:#181ea9;stroke-miterlimit:10;stroke-width:0.6000000238418579px"/><line x1="479.03" y1="548.07" x2="479.03" y2="584.36" style="fill:none;stroke:#181ea9;stroke-miterlimit:10;stroke-width:0.6000000238418579px"/><line x1="635.75" y1="514.97" x2="635.75" y2="584.36" style="fill:none;stroke:#181ea9;stroke-miterlimit:10;stroke-width:0.6000000238418579px"/><line x1="164.69" y1="547.83" x2="164.69" y2="584.36" style="fill:none;stroke:#181ea9;stroke-miterlimit:10;stroke-width:0.6000000238418579px"/><line x1="321.7" y1="514.97" x2="321.7" y2="584.36" style="fill:none;stroke:#181ea9;stroke-miterlimit:10;stroke-width:0.6000000238418579px"/><circle cx="479.19" cy="591.5" r="7.3" style="fill:none;stroke:#181ea9;stroke-miterlimit:10;stroke-width:0.6000000238418579px"/><circle cx="635.91" cy="591.5" r="7.3" style="fill:none;stroke:#181ea9;stroke-miterlimit:10;stroke-width:0.6000000238418579px"/><circle cx="164.69" cy="591.5" r="7.3" style="fill:none;stroke:#181ea9;stroke-miterlimit:10;stroke-width:0.6000000238418579px"/><circle cx="321.54" cy="591.5" r="7.3" style="fill:none;stroke:#181ea9;stroke-miterlimit:10;stroke-width:0.6000000238418579px"/><polygon points="171.99 564.51 164.69 576.69 157.38 564.51 171.99 564.51" style="fill:none;stroke:#181ea9;stroke-miterlimit:10;stroke-width:0.6000000238418579px"/><polygon points="325.35 570.53 321.7 576.62 318.05 570.53 325.35 570.53" style="fill:none;stroke:#181ea9;stroke-miterlimit:10;stroke-width:0.6000000238418579px"/><polygon points="486.33 564.51 479.03 576.69 471.72 564.51 486.33 564.51" style="fill:none;stroke:#181ea9;stroke-miterlimit:10;stroke-width:0.6000000238418579px"/><polygon points="639.39 570.53 635.74 576.62 632.09 570.53 639.39 570.53" style="fill:none;stroke:#181ea9;stroke-miterlimit:10;stroke-width:0.6000000238418579px"/><polygon points="171.99 327.11 164.69 314.94 157.38 327.11 171.99 327.11" style="fill:none;stroke:#181ea9;stroke-miterlimit:10;stroke-width:0.6000000238418579px"/><polygon points="325.35 321.09 321.7 315.01 318.05 321.09 325.35 321.09" style="fill:none;stroke:#181ea9;stroke-miterlimit:10;stroke-width:0.6000000238418579px"/><polygon points="486.33 327.11 479.03 314.94 471.72 327.11 486.33 327.11" style="fill:none;stroke:#181ea9;stroke-miterlimit:10;stroke-width:0.6000000238418579px"/><polygon points="639.39 321.09 635.74 315.01 632.09 321.09 639.39 321.09" style="fill:none;stroke:#181ea9;stroke-miterlimit:10;stroke-width:0.6000000238418579px"/><polygon points="34.45 292.12 22.27 299.42 34.45 306.73 34.45 292.12" style="fill:none;stroke:#181ea9;stroke-miterlimit:10;stroke-width:0.6000000238418579px"/><polygon points="765.55 306.73 777.73 299.42 765.55 292.12 765.55 306.73" style="fill:none;stroke:#181ea9;stroke-miterlimit:10;stroke-width:0.6000000238418579px"/></svg>